<?xml version="1.0" encoding="UTF-8" standalone="no"?>
<svg
   xmlns:dc="http://purl.org/dc/elements/1.1/"
   xmlns:cc="http://creativecommons.org/ns#"
   xmlns:rdf="http://www.w3.org/1999/02/22-rdf-syntax-ns#"
   xmlns:svg="http://www.w3.org/2000/svg"
   xmlns="http://www.w3.org/2000/svg"
   xmlns:sodipodi="http://sodipodi.sourceforge.net/DTD/sodipodi-0.dtd"
   xmlns:inkscape="http://www.inkscape.org/namespaces/inkscape"
   viewBox="0 0 640 512"
   version="1.1"
   id="svg3725"
   sodipodi:docname="helicopter-solid.svg"
   inkscape:version="0.92.4 (5da689c313, 2019-01-14)">
  <metadata
     id="metadata3731">
    <rdf:RDF>
      <cc:Work
         rdf:about="">
        <dc:format>image/svg+xml</dc:format>
        <dc:type
           rdf:resource="http://purl.org/dc/dcmitype/StillImage" />
        <dc:title></dc:title>
      </cc:Work>
    </rdf:RDF>
  </metadata>
  <defs
     id="defs3729" />
  <sodipodi:namedview
     pagecolor="#ffffff"
     bordercolor="#666666"
     borderopacity="1"
     objecttolerance="10"
     gridtolerance="10"
     guidetolerance="10"
     inkscape:pageopacity="0"
     inkscape:pageshadow="2"
     inkscape:window-width="1920"
     inkscape:window-height="1017"
     id="namedview3727"
     showgrid="false"
     inkscape:zoom="1.65625"
     inkscape:cx="320"
     inkscape:cy="256"
     inkscape:window-x="-8"
     inkscape:window-y="-8"
     inkscape:window-maximized="1"
     inkscape:current-layer="svg3725" />
  <!--! Font Awesome Pro 6.1.1 by @fontawesome - https://fontawesome.com License - https://fontawesome.com/license (Commercial License) Copyright 2022 Fonticons, Inc. -->
  <path
     d="M127.1 32C127.1 14.33 142.3 0 159.1 0H544C561.7 0 576 14.33 576 32C576 49.67 561.7 64 544 64H384V128H416C504.4 128 576 199.6 576 288V352C576 369.7 561.7 384 544 384H303.1C293.9 384 284.4 379.3 278.4 371.2L191.1 256L47.19 198.1C37.65 194.3 30.52 186.1 28.03 176.1L4.97 83.88C2.445 73.78 10.08 64 20.49 64H47.1C58.07 64 67.56 68.74 73.6 76.8L111.1 128H319.1V64H159.1C142.3 64 127.1 49.67 127.1 32V32zM384 320H512V288C512 234.1 469 192 416 192H384V320zM630.6 470.6L626.7 474.5C602.7 498.5 570.2 512 536.2 512H255.1C238.3 512 223.1 497.7 223.1 480C223.1 462.3 238.3 448 255.1 448H536.2C553.2 448 569.5 441.3 581.5 429.3L585.4 425.4C597.9 412.9 618.1 412.9 630.6 425.4C643.1 437.9 643.1 458.1 630.6 470.6L630.6 470.6z"
     id="path3723" />
  <path
     style="stroke-width:0.60377359"
     d="m 296.18757,382.79056 c -4.01243,-0.97045 -9.74241,-4.01792 -13.18359,-7.01164 -1.25347,-1.09049 -22.44592,-28.57573 -47.09433,-61.07833 L 191.09434,255.60496 118.33962,226.37621 C 78.324528,210.3004 44.130284,196.27457 42.352413,195.20769 38.025406,192.61112 33.105152,187.20099 30.854238,182.56472 28.653001,178.03077 4.8222072,83.431263 4.8434488,79.311432 4.8708307,74.000658 8.7648822,68.372118 14.188679,65.803659 c 2.954674,-1.399197 3.385289,-1.429724 20.250507,-1.435496 18.957754,-0.0065 21.273462,0.296054 28.249179,3.690699 2.220526,1.080592 5.254687,3.29193 7.24528,5.280477 1.883665,1.881721 11.847487,15.017407 22.141827,29.190401 l 18.716978,25.7691 104.30189,0.0317 104.30189,0.0317 V 96.060377 63.758491 h -81.47972 c -56.77482,0 -82.44982,-0.200822 -84.67925,-0.662322 C 140.63304,60.487004 130.00677,49.44383 127.88386,36.74806 125.2899,21.235157 136.02918,5.4138474 151.97174,1.2613375 154.99449,0.47401141 179.8188,0.36226415 351.69811,0.36226415 c 214.95232,0 198.99089,-0.26851484 206.65231,3.47645555 7.00182,3.4225482 13.49639,11.1220793 15.87439,18.8196173 1.67196,5.412076 1.6658,13.411933 -0.0145,18.851057 -3.28739,10.641221 -13.42646,19.604007 -24.4344,21.599617 -2.44061,0.442452 -29.4328,0.64948 -84.67924,0.64948 H 384 v 32.240132 32.240137 l 24.30189,0.28749 c 20.91297,0.2474 25.36978,0.46385 31.95977,1.55211 34.75991,5.74025 63.97909,20.63417 88.36715,45.04343 13.72247,13.73441 22.56453,26.06235 30.77011,42.90085 5.29768,10.87128 8.08092,18.26808 10.86867,28.88492 5.01592,19.1026 5.93271,31.98305 5.59575,78.61778 -0.22414,31.01954 -0.27054,32.08824 -1.5622,35.98405 -3.51249,10.59405 -12.88252,19.11279 -23.49673,21.36199 -6.12755,1.29846 -249.23317,1.22129 -254.61684,-0.0808 z m 215.64982,-85.82452 c -0.23544,-21.10898 -0.38619,-23.94342 -1.542,-28.99346 -2.96418,-12.95128 -7.34221,-23.2652 -14.32874,-33.75622 -13.04691,-19.59134 -32.87986,-33.58296 -55.95453,-39.47444 -9.28272,-2.37009 -16.58628,-2.95919 -36.84231,-2.97164 L 384,191.75849 v 64.30189 64.30188 h 64.04917 64.04917 z"
     id="path3733"
     inkscape:connector-curvature="0" />
  <path
     style="stroke-width:0.60377359"
     d="m 296.2319,382.80063 c -4.92012,-1.1909 -10.34618,-4.22685 -13.94371,-7.80169 -1.6736,-1.66303 -20.42017,-25.98001 -41.65906,-54.03773 -21.23888,-28.05772 -41.07284,-54.22449 -44.07547,-58.14837 l -5.45932,-7.13434 -72.45283,-29.1461 C 78.792453,210.50204 44.966038,196.75925 43.471698,195.99286 39.37868,193.8937 33.137176,187.29734 30.895727,182.70189 28.522318,177.83588 4.8224422,83.995949 4.8434488,79.547586 4.8696254,74.004408 8.6681816,68.417914 14.188679,65.803659 c 2.95202,-1.397941 3.395901,-1.42973 20.045754,-1.435496 10.032545,-0.0036 18.341194,0.266174 20.226415,0.656423 5.343307,1.106101 11.621627,4.470013 15.441292,8.273412 1.900994,1.892891 11.878992,15.039264 22.173332,29.214162 l 18.716978,25.77253 104.30189,0.0388 104.30189,0.0388 V 96.060377 63.758491 l -81.66038,-0.0089 C 167.03499,63.741826 155.5563,63.618252 152.20714,62.8288 135.45013,58.878901 124.12789,40.937535 128.2953,24.937778 131.26174,13.548866 140.58283,4.2277723 151.97174,1.2613375 c 3.02271,-0.78731679 27.82364,-0.89907335 199.52162,-0.89907335 140.81021,0 196.97159,0.18804703 199.26938,0.66722045 10.53373,2.1966743 20.21644,11.1228214 23.46207,21.6288524 1.67196,5.412076 1.6658,13.411933 -0.0145,18.851057 -2.34441,7.588749 -8.26292,14.603288 -15.63838,18.534371 -7.18395,3.829002 -3.75442,3.692712 -93.21345,3.704244 L 384,63.758491 v 32.240132 32.240137 l 24.30189,0.28591 c 26.39479,0.31053 30.01232,0.64736 44.83019,4.17417 60.56988,14.41627 107.26259,62.97446 119.49316,124.2672 2.86693,14.36746 3.06466,18.25748 3.06889,60.37736 0.004,39.15288 -0.009,39.58955 -1.33365,43.79866 -3.41527,10.85492 -12.71299,19.43162 -23.55607,21.72932 -6.08688,1.28983 -249.23054,1.22226 -254.57251,-0.0707 z m 215.63887,-85.53271 c -0.23498,-22.73964 -0.26455,-23.20524 -1.92478,-30.31558 -2.15712,-9.23831 -3.8993,-14.12599 -7.97136,-22.36366 -11.08956,-22.43388 -31.33577,-39.92149 -55.48406,-47.92423 -12.08569,-4.0052 -20.05719,-4.89464 -43.92453,-4.90101 L 384,191.75849 v 64.30189 64.30188 h 64.05471 64.0547 z"
     id="path3735"
     inkscape:connector-curvature="0" />
  <path
     style="stroke-width:0.60377359;fill:#ffffff"
     d="m 297.16304,383.11245 c -3.64359,-0.71703 -8.86185,-3.20789 -12.54314,-5.98729 -3.07625,-2.32259 -11.27678,-12.93463 -75.67597,-97.9298 l -17.69607,-23.35558 -13.35978,-5.41244 C 170.5402,247.45049 138.03774,234.35896 105.66038,221.33502 73.283019,208.31109 45.435626,196.96949 43.777283,196.13147 39.442023,193.9407 33.208291,187.44251 30.894239,182.70189 28.48893,177.77432 4.8226337,84.120272 4.8434488,79.611749 c 0.025884,-5.606484 3.7991778,-11.181735 9.3452302,-13.80809 2.95202,-1.397941 3.395901,-1.42973 20.045754,-1.435496 10.032545,-0.0036 18.341194,0.266174 20.226415,0.656423 5.349225,1.107326 11.621724,4.469699 15.441292,8.277307 1.900994,1.895034 9.695209,12.002258 17.320483,22.460492 7.625274,10.458235 16.114217,22.071575 18.864317,25.807425 l 5.00017,6.79245 H 215.24167 319.39623 V 96.060377 63.758491 l -81.66038,-0.0089 C 167.03499,63.741826 155.5563,63.618252 152.20714,62.8288 141.05476,60.199994 131.25253,50.536546 128.32072,39.280559 c -4.18729,-16.076101 6.7197,-33.6091835 23.65102,-38.0192336 3.02271,-0.78730469 27.82364,-0.89906125 199.52162,-0.89906125 140.81021,0 196.97159,0.18804703 199.26938,0.66722045 10.53373,2.1966743 20.21644,11.1228214 23.46207,21.6288524 1.6653,5.390532 1.6653,13.413548 0,18.804081 -3.24355,10.499298 -12.69098,19.135348 -23.4204,21.40896 -3.43326,0.727523 -17.10826,0.867822 -85.44592,0.876631 L 384,63.758491 v 32.240132 32.240137 l 24.30189,0.28591 c 25.64941,0.30176 29.37736,0.62421 43.32091,3.747 60.6148,13.57524 109.13943,63.4884 120.97853,124.44033 2.90803,14.97153 3.08857,18.51085 3.0928,60.6314 0.004,39.15288 -0.009,39.58955 -1.33365,43.79866 -3.44242,10.94121 -12.66046,19.41959 -23.64531,21.74799 -3.36246,0.71272 -23.63085,0.83862 -127.46989,0.7918 -67.90943,-0.0306 -124.64644,-0.28684 -126.08224,-0.5694 z m 214.66901,-85.84453 c -0.32949,-24.99782 -0.65672,-27.94253 -4.3831,-39.44273 -2.11719,-6.53402 -7.48158,-17.56413 -11.42308,-23.48784 -13.60049,-20.44028 -36.05764,-35.61055 -59.79945,-40.39577 -8.39827,-1.69268 -15.79774,-2.16187 -34.26416,-2.17263 L 384,191.75849 v 64.30189 64.30188 h 64.06823 64.06822 z"
     id="path3737"
     inkscape:connector-curvature="0" />
  <path
     style="fill:#ffffff;stroke-width:0.60377359"
     d="m 248.31526,510.89749 c -15.76869,-3.85363 -26.74308,-19.54314 -24.51036,-35.04116 1.69547,-11.76878 9.62443,-21.13084 22.18982,-26.20044 2.24868,-0.90724 15.11247,-1.02013 150.98641,-1.32492 163.16831,-0.36603 150.02238,-0.0501 160.95006,-3.86801 9.35479,-3.26837 16.18854,-7.73553 25.95695,-16.96783 6.37812,-6.02807 10.68796,-8.67114 16.68737,-10.23379 12.56449,-3.27263 26.761,2.49194 34.1082,13.84983 3.25787,5.03628 4.71581,10.17563 4.69775,16.55998 -0.0313,11.06414 -2.30688,15.75947 -12.6333,26.06672 -19.97504,19.93796 -42.43036,31.46271 -71.37427,36.63144 -5.14771,0.91927 -18.60782,1.01956 -154.77012,1.1532 -119.37046,0.11716 -149.76199,-0.008 -152.28851,-0.62502 z"
     id="path3739"
     inkscape:connector-curvature="0" />
</svg>
